<mxfile host="app.diagrams.net" agent="Mozilla/5.0 (Windows NT 10.0; Win64; x64) AppleWebKit/537.36 (KHTML, like Gecko) Chrome/125.0.0.0 Safari/537.36" version="24.7.17">
  <diagram name="Page-1" id="iu_QeA3Vi4PCRt67QgVc">
    <mxGraphModel dx="1434" dy="780" grid="1" gridSize="10" guides="1" tooltips="1" connect="1" arrows="1" fold="1" page="1" pageScale="1" pageWidth="850" pageHeight="1100" math="0" shadow="0">
      <root>
        <mxCell id="0" />
        <mxCell id="1" parent="0" />
        <mxCell id="3SOm0UW0g-uSO9TK7e0n-1" value="" style="edgeStyle=orthogonalEdgeStyle;rounded=0;orthogonalLoop=1;jettySize=auto;html=1;" parent="1" target="3SOm0UW0g-uSO9TK7e0n-3" edge="1">
          <mxGeometry relative="1" as="geometry">
            <mxPoint x="425" y="100" as="sourcePoint" />
          </mxGeometry>
        </mxCell>
        <mxCell id="3SOm0UW0g-uSO9TK7e0n-2" value="" style="edgeStyle=orthogonalEdgeStyle;rounded=0;orthogonalLoop=1;jettySize=auto;html=1;" parent="1" source="3SOm0UW0g-uSO9TK7e0n-3" target="3SOm0UW0g-uSO9TK7e0n-5" edge="1">
          <mxGeometry relative="1" as="geometry" />
        </mxCell>
        <mxCell id="3SOm0UW0g-uSO9TK7e0n-3" value="int number;" style="shape=parallelogram;perimeter=parallelogramPerimeter;whiteSpace=wrap;html=1;fixedSize=1;" parent="1" vertex="1">
          <mxGeometry x="365" y="150" width="120" height="60" as="geometry" />
        </mxCell>
        <mxCell id="3SOm0UW0g-uSO9TK7e0n-4" value="" style="edgeStyle=orthogonalEdgeStyle;rounded=0;orthogonalLoop=1;jettySize=auto;html=1;" parent="1" source="3SOm0UW0g-uSO9TK7e0n-5" edge="1">
          <mxGeometry relative="1" as="geometry">
            <mxPoint x="425" y="410" as="targetPoint" />
          </mxGeometry>
        </mxCell>
        <mxCell id="3SOm0UW0g-uSO9TK7e0n-5" value="int minlik = number / 1000;&lt;div&gt;int yuzluk = (number / 100) % 10;&lt;/div&gt;&lt;div&gt;int onluq = (number / 10) % 10;&lt;/div&gt;&lt;div&gt;int teklik = number % 10&lt;/div&gt;" style="whiteSpace=wrap;html=1;" parent="1" vertex="1">
          <mxGeometry x="330" y="270" width="190" height="60" as="geometry" />
        </mxCell>
        <mxCell id="3SOm0UW0g-uSO9TK7e0n-8" value="End" style="rounded=1;whiteSpace=wrap;html=1;" parent="1" vertex="1">
          <mxGeometry x="365" y="620" width="120" height="60" as="geometry" />
        </mxCell>
        <mxCell id="3SOm0UW0g-uSO9TK7e0n-10" value="Start" style="rounded=1;whiteSpace=wrap;html=1;" parent="1" vertex="1">
          <mxGeometry x="365" y="40" width="120" height="60" as="geometry" />
        </mxCell>
        <mxCell id="VgcC1wlaer6iywmIH_Wk-6" value="True" style="edgeStyle=orthogonalEdgeStyle;rounded=0;orthogonalLoop=1;jettySize=auto;html=1;" edge="1" parent="1" source="VgcC1wlaer6iywmIH_Wk-1" target="VgcC1wlaer6iywmIH_Wk-5">
          <mxGeometry relative="1" as="geometry">
            <Array as="points">
              <mxPoint x="120" y="450" />
            </Array>
          </mxGeometry>
        </mxCell>
        <mxCell id="VgcC1wlaer6iywmIH_Wk-8" value="False" style="edgeStyle=orthogonalEdgeStyle;rounded=0;orthogonalLoop=1;jettySize=auto;html=1;exitX=1;exitY=0.5;exitDx=0;exitDy=0;entryX=0.5;entryY=0;entryDx=0;entryDy=0;" edge="1" parent="1" source="VgcC1wlaer6iywmIH_Wk-1" target="VgcC1wlaer6iywmIH_Wk-7">
          <mxGeometry relative="1" as="geometry">
            <Array as="points">
              <mxPoint x="730" y="450" />
            </Array>
          </mxGeometry>
        </mxCell>
        <mxCell id="VgcC1wlaer6iywmIH_Wk-1" value="(minlik + yuzluk + onluq + teklik) % 3 == 0 &amp;amp;&amp;amp; (minlik + yuzluk + onluq + teklik) % 5&amp;nbsp; == 0" style="rhombus;whiteSpace=wrap;html=1;" vertex="1" parent="1">
          <mxGeometry x="160" y="410" width="540" height="80" as="geometry" />
        </mxCell>
        <mxCell id="VgcC1wlaer6iywmIH_Wk-9" style="edgeStyle=orthogonalEdgeStyle;rounded=0;orthogonalLoop=1;jettySize=auto;html=1;exitX=0;exitY=0.5;exitDx=0;exitDy=0;entryX=0;entryY=0.5;entryDx=0;entryDy=0;" edge="1" parent="1" source="VgcC1wlaer6iywmIH_Wk-5" target="3SOm0UW0g-uSO9TK7e0n-8">
          <mxGeometry relative="1" as="geometry" />
        </mxCell>
        <mxCell id="VgcC1wlaer6iywmIH_Wk-5" value="Dogrudur, bolunurler" style="shape=document;whiteSpace=wrap;html=1;boundedLbl=1;" vertex="1" parent="1">
          <mxGeometry x="60" y="550" width="120" height="80" as="geometry" />
        </mxCell>
        <mxCell id="VgcC1wlaer6iywmIH_Wk-10" style="edgeStyle=orthogonalEdgeStyle;rounded=0;orthogonalLoop=1;jettySize=auto;html=1;exitX=1;exitY=0.5;exitDx=0;exitDy=0;entryX=1;entryY=0.5;entryDx=0;entryDy=0;" edge="1" parent="1" source="VgcC1wlaer6iywmIH_Wk-7" target="3SOm0UW0g-uSO9TK7e0n-8">
          <mxGeometry relative="1" as="geometry" />
        </mxCell>
        <mxCell id="VgcC1wlaer6iywmIH_Wk-7" value="Bolunmurler" style="shape=document;whiteSpace=wrap;html=1;boundedLbl=1;" vertex="1" parent="1">
          <mxGeometry x="670" y="540" width="120" height="80" as="geometry" />
        </mxCell>
      </root>
    </mxGraphModel>
  </diagram>
</mxfile>
